G04 Layer_Color=32896*
%FSLAX26Y26*%
%MOIN*%
%TF.FileFunction,Legend,Bot*%
%TF.Part,Single*%
G01*
G75*
%TA.AperFunction,NonConductor*%
%ADD28C,0.010000*%
%ADD29C,0.011811*%
%ADD30C,0.019685*%
D28*
X-524606Y1872047D02*
X-508858Y1887795D01*
X-524606Y1872047D02*
Y1872047D01*
X-508858Y1887795D02*
X-410433D01*
X-524606Y1714567D02*
X-410433D01*
X406496Y1872047D02*
X422244Y1887795D01*
X406496Y1872047D02*
Y1872047D01*
X422244Y1887795D02*
X520669D01*
X406496Y1714567D02*
X520669D01*
X-413386Y1674154D02*
Y1624170D01*
X-423383Y1614173D01*
X-443376D01*
X-453373Y1624170D01*
Y1674154D01*
X-473366Y1664157D02*
X-483363Y1674154D01*
X-503357D01*
X-513354Y1664157D01*
Y1654160D01*
X-503357Y1644164D01*
X-493360D01*
X-503357D01*
X-513354Y1634167D01*
Y1624170D01*
X-503357Y1614173D01*
X-483363D01*
X-473366Y1624170D01*
X511811Y1674154D02*
Y1624170D01*
X501814Y1614173D01*
X481821D01*
X471824Y1624170D01*
Y1674154D01*
X411843Y1614173D02*
X451830D01*
X411843Y1654160D01*
Y1664157D01*
X421840Y1674154D01*
X441834D01*
X451830Y1664157D01*
D29*
X244107Y-1066198D02*
Y-1144912D01*
X204750D01*
X191631Y-1131793D01*
Y-1079317D01*
X204750Y-1066198D01*
X244107D01*
X165392Y-1144912D02*
Y-1131793D01*
X152273D01*
Y-1144912D01*
X165392D01*
X47320Y-1066198D02*
X73559D01*
X60439D01*
Y-1131793D01*
X73559Y-1144912D01*
X86678D01*
X99797Y-1131793D01*
X21082Y-1092436D02*
Y-1131793D01*
X7963Y-1144912D01*
X-31395D01*
Y-1092436D01*
X-57633Y-1144912D02*
X-96990D01*
X-110109Y-1131793D01*
X-96990Y-1118674D01*
X-70752D01*
X-57633Y-1105555D01*
X-70752Y-1092436D01*
X-110109D01*
X-149467Y-1079317D02*
Y-1092436D01*
X-136348D01*
X-162586D01*
X-149467D01*
Y-1131793D01*
X-162586Y-1144912D01*
X-201943D02*
X-241301D01*
X-254420Y-1131793D01*
X-241301Y-1118674D01*
X-215062D01*
X-201943Y-1105555D01*
X-215062Y-1092436D01*
X-254420D01*
X257226Y-1267717D02*
Y-1189002D01*
X217869D01*
X204750Y-1202121D01*
Y-1228359D01*
X217869Y-1241478D01*
X257226D01*
X230988D02*
X204750Y-1267717D01*
X178512Y-1189002D02*
X126035D01*
X152273D01*
Y-1267717D01*
X99797Y-1189002D02*
Y-1254598D01*
X86678Y-1267717D01*
X60439D01*
X47320Y-1254598D01*
Y-1189002D01*
X-110109D02*
X-57633D01*
Y-1267717D01*
X-110109D01*
X-57633Y-1228359D02*
X-83871D01*
X-136348Y-1189002D02*
X-188824D01*
X-162586D01*
Y-1267717D01*
X-267539Y-1189002D02*
X-215062D01*
Y-1228359D01*
X-241301D01*
X-215062D01*
Y-1267717D01*
D30*
X334547Y409266D02*
X354226Y428945D01*
X393583D01*
X413262Y409266D01*
Y389588D01*
X393583Y369909D01*
X354226D01*
X334547Y350230D01*
Y330552D01*
X354226Y310873D01*
X393583D01*
X413262Y330552D01*
X295190Y310873D02*
Y428945D01*
Y350230D02*
X236154Y389588D01*
X295190Y350230D02*
X236154Y310873D01*
X157439D02*
X118082D01*
X98403Y330552D01*
Y369909D01*
X118082Y389588D01*
X157439D01*
X177118Y369909D01*
Y330552D01*
X157439Y310873D01*
X59046D02*
X19688D01*
X39367D01*
Y428945D01*
X59046D01*
X-98384Y310873D02*
X-59026D01*
X-39348Y330552D01*
Y369909D01*
X-59026Y389588D01*
X-98384D01*
X-118062Y369909D01*
Y350230D01*
X-39348D01*
X-157420Y310873D02*
Y389588D01*
X-216456D01*
X-236135Y369909D01*
Y310873D01*
X-275492Y389588D02*
Y330552D01*
X-295171Y310873D01*
X-354207D01*
Y389588D01*
X610048Y240014D02*
X688763D01*
Y121942D01*
X610048D01*
X688763Y180978D02*
X649406D01*
X570691Y121942D02*
X531334D01*
X551012D01*
Y240014D01*
X570691D01*
X413262Y121942D02*
X452619D01*
X472298Y141621D01*
Y180978D01*
X452619Y200657D01*
X413262D01*
X393583Y180978D01*
Y161300D01*
X472298D01*
X354226Y121942D02*
Y240014D01*
Y161300D02*
X295190Y200657D01*
X354226Y161300D02*
X295190Y121942D01*
X216475Y220336D02*
Y200657D01*
X236154D01*
X196796D01*
X216475D01*
Y141621D01*
X196796Y121942D01*
X137760Y200657D02*
Y121942D01*
Y161300D01*
X118082Y180978D01*
X98403Y200657D01*
X78724D01*
X9Y121942D02*
X-39348D01*
X-59026Y141621D01*
Y180978D01*
X-39348Y200657D01*
X9D01*
X19688Y180978D01*
Y141621D01*
X9Y121942D01*
X-98384D02*
Y200657D01*
X-157420D01*
X-177099Y180978D01*
Y121942D01*
X-216456D02*
X-255813D01*
X-236135D01*
Y200657D01*
X-216456D01*
X-314849Y121942D02*
Y240014D01*
Y161300D02*
X-373885Y200657D01*
X-314849Y161300D02*
X-373885Y121942D01*
X-452600Y200657D02*
X-491957D01*
X-511636Y180978D01*
Y121942D01*
X-452600D01*
X-432921Y141621D01*
X-452600Y161300D01*
X-511636D01*
X-550993Y121942D02*
X-610029D01*
X-629708Y141621D01*
X-610029Y161300D01*
X-570672D01*
X-550993Y180978D01*
X-570672Y200657D01*
X-629708D01*
X452619Y51084D02*
X491976D01*
X511655Y31405D01*
Y-47309D01*
X491976Y-66988D01*
X452619D01*
X432940Y-47309D01*
Y31405D01*
X452619Y51084D01*
X393583Y-66988D02*
X354226D01*
X373904D01*
Y51084D01*
X393583D01*
X295190Y-66988D02*
X255832D01*
X275511D01*
Y11727D01*
X295190D01*
X196796Y-66988D02*
Y11727D01*
X177118D01*
X157439Y-7952D01*
Y-66988D01*
Y-7952D01*
X137760Y11727D01*
X118082Y-7952D01*
Y-66988D01*
X78724Y-106345D02*
Y11727D01*
X19688D01*
X9Y-7952D01*
Y-47309D01*
X19688Y-66988D01*
X78724D01*
X-39348D02*
X-78705D01*
X-59026D01*
Y11727D01*
X-39348D01*
X-157420D02*
X-196777D01*
X-216456Y-7952D01*
Y-66988D01*
X-157420D01*
X-137741Y-47309D01*
X-157420Y-27631D01*
X-216456D01*
X-334528Y51084D02*
Y-66988D01*
X-275492D01*
X-255813Y-47309D01*
Y-7952D01*
X-275492Y11727D01*
X-334528D01*
X-432921Y-66988D02*
X-393564D01*
X-373885Y-47309D01*
Y-7952D01*
X-393564Y11727D01*
X-432921D01*
X-452600Y-7952D01*
Y-27631D01*
X-373885D01*
X157439Y-295276D02*
X236154D01*
X157439Y-216561D01*
Y-196882D01*
X177118Y-177204D01*
X216475D01*
X236154Y-196882D01*
X118082D02*
X98403Y-177204D01*
X59046D01*
X39367Y-196882D01*
Y-275597D01*
X59046Y-295276D01*
X98403D01*
X118082Y-275597D01*
Y-196882D01*
X10Y-295276D02*
X-39348D01*
X-19669D01*
Y-177204D01*
X10Y-196882D01*
X-98384D02*
X-118062Y-177204D01*
X-157420D01*
X-177099Y-196882D01*
Y-216561D01*
X-157420Y-236240D01*
X-177099Y-255918D01*
Y-275597D01*
X-157420Y-295276D01*
X-118062D01*
X-98384Y-275597D01*
Y-255918D01*
X-118062Y-236240D01*
X-98384Y-216561D01*
Y-196882D01*
X-118062Y-236240D02*
X-157420D01*
%TF.MD5,0455f3679edb4d82ee52933d3d724004*%
M02*
