G04 Layer_Color=65535*
%FSLAX26Y26*%
%MOIN*%
%TF.FileFunction,Legend,Top*%
%TF.Part,Single*%
G01*
G75*
%TA.AperFunction,NonConductor*%
%ADD28C,0.010000*%
%ADD47C,0.023622*%
%ADD48C,0.009842*%
%ADD49C,0.007874*%
%ADD50R,0.031496X0.110236*%
D28*
X-902575Y876955D02*
Y1103333D01*
X-892733Y1113176D01*
X-804150D01*
X-715567D01*
X-705725Y1103333D01*
Y876955D02*
Y1103333D01*
X705724Y876955D02*
Y1103333D01*
X715567Y1113176D01*
X804149D01*
X892732D01*
X902575Y1103333D01*
Y876955D02*
Y1103333D01*
X-858268Y1145669D02*
Y1205650D01*
X-838274Y1185656D01*
X-818281Y1205650D01*
Y1145669D01*
X-758300D02*
X-798287D01*
X-758300Y1185656D01*
Y1195653D01*
X-768297Y1205650D01*
X-788290D01*
X-798287Y1195653D01*
X-38386Y1624153D02*
Y1574170D01*
X-28389Y1564173D01*
X-8396D01*
X1601Y1574170D01*
Y1624153D01*
X21595Y1564173D02*
X41588D01*
X31592D01*
Y1624153D01*
X21595Y1614157D01*
X617Y660220D02*
X-9380Y670217D01*
X-29373D01*
X-39370Y660220D01*
Y650223D01*
X-29373Y640226D01*
X-9380D01*
X617Y630230D01*
Y620233D01*
X-9380Y610236D01*
X-29373D01*
X-39370Y620233D01*
X20610Y610236D02*
X40604D01*
X30607D01*
Y670217D01*
X20610Y660220D01*
X-358268Y1594488D02*
X-418248D01*
Y1624478D01*
X-408252Y1634475D01*
X-388258D01*
X-378261Y1624478D01*
Y1594488D01*
Y1614482D02*
X-358268Y1634475D01*
Y1684459D02*
X-418248D01*
X-388258Y1654469D01*
Y1694456D01*
X-515748Y1594488D02*
X-575729D01*
Y1624478D01*
X-565732Y1634475D01*
X-545738D01*
X-535741Y1624478D01*
Y1594488D01*
Y1614482D02*
X-515748Y1634475D01*
X-565732Y1654469D02*
X-575729Y1664466D01*
Y1684459D01*
X-565732Y1694456D01*
X-555735D01*
X-545738Y1684459D01*
Y1674462D01*
Y1684459D01*
X-535741Y1694456D01*
X-525745D01*
X-515748Y1684459D01*
Y1664466D01*
X-525745Y1654469D01*
X-450170Y746217D02*
Y786204D01*
X-460167Y796201D01*
X-480161D01*
X-490158Y786204D01*
Y746217D01*
X-480161Y736221D01*
X-460167D01*
X-470164Y756214D02*
X-450170Y736221D01*
X-460167D02*
X-450170Y746217D01*
X-390190Y736221D02*
X-430177D01*
X-390190Y776208D01*
Y786204D01*
X-400187Y796201D01*
X-420180D01*
X-430177Y786204D01*
X-82677Y304075D02*
Y244095D01*
X-52687D01*
X-42690Y254091D01*
Y264088D01*
X-52687Y274085D01*
X-82677D01*
X-52687D01*
X-42690Y284082D01*
Y294078D01*
X-52687Y304075D01*
X-82677D01*
X-22697D02*
X17291D01*
X-2703D01*
Y244095D01*
X37284D02*
X57278D01*
X47281D01*
Y304075D01*
X37284Y294078D01*
X-348622Y662343D02*
Y602362D01*
X-318632D01*
X-308635Y612359D01*
Y652346D01*
X-318632Y662343D01*
X-348622D01*
X-248654Y602362D02*
X-288642D01*
X-248654Y642349D01*
Y652346D01*
X-258651Y662343D01*
X-278645D01*
X-288642Y652346D01*
X767716Y1145669D02*
Y1205650D01*
X787710Y1185656D01*
X807704Y1205650D01*
Y1145669D01*
X827697D02*
X847691D01*
X837694D01*
Y1205650D01*
X827697Y1195653D01*
X570866Y1594488D02*
X510885D01*
Y1624478D01*
X520882Y1634475D01*
X540876D01*
X550873Y1624478D01*
Y1594488D01*
Y1614482D02*
X570866Y1634475D01*
Y1694456D02*
Y1654469D01*
X530879Y1694456D01*
X520882D01*
X510885Y1684459D01*
Y1664466D01*
X520882Y1654469D01*
X413386Y1594488D02*
X353405D01*
Y1624478D01*
X363402Y1634475D01*
X383396D01*
X393392Y1624478D01*
Y1594488D01*
Y1614482D02*
X413386Y1634475D01*
Y1654469D02*
Y1674462D01*
Y1664466D01*
X353405D01*
X363402Y1654469D01*
X443530Y754091D02*
Y794078D01*
X433534Y804075D01*
X413540D01*
X403543Y794078D01*
Y754091D01*
X413540Y744095D01*
X433534D01*
X423537Y764088D02*
X443530Y744095D01*
X433534D02*
X443530Y754091D01*
X463524Y744095D02*
X483517D01*
X473521D01*
Y804075D01*
X463524Y794078D01*
X289567Y670217D02*
Y610236D01*
X319557D01*
X329554Y620233D01*
Y660220D01*
X319557Y670217D01*
X289567D01*
X349548Y610236D02*
X369541D01*
X359544D01*
Y670217D01*
X349548Y660220D01*
X1125984Y1516674D02*
Y1456693D01*
X1155975D01*
X1165971Y1466690D01*
Y1506677D01*
X1155975Y1516674D01*
X1125984D01*
X1185965Y1506677D02*
X1195962Y1516674D01*
X1215955D01*
X1225952Y1506677D01*
Y1496680D01*
X1215955Y1486683D01*
X1205958D01*
X1215955D01*
X1225952Y1476686D01*
Y1466690D01*
X1215955Y1456693D01*
X1195962D01*
X1185965Y1466690D01*
X1208661Y1322835D02*
Y1382815D01*
X1238652D01*
X1248649Y1372818D01*
Y1352825D01*
X1238652Y1342828D01*
X1208661D01*
X1228655D02*
X1248649Y1322835D01*
X1308629Y1382815D02*
X1268642D01*
Y1352825D01*
X1288636Y1362822D01*
X1298632D01*
X1308629Y1352825D01*
Y1332831D01*
X1298632Y1322835D01*
X1278639D01*
X1268642Y1332831D01*
X283661Y460630D02*
Y520611D01*
X313652D01*
X323649Y510614D01*
Y490620D01*
X313652Y480623D01*
X283661D01*
X303655D02*
X323649Y460630D01*
X343642Y520611D02*
X383629D01*
Y510614D01*
X343642Y470627D01*
Y460630D01*
X-362402Y472441D02*
Y532422D01*
X-332411D01*
X-322415Y522425D01*
Y502431D01*
X-332411Y492435D01*
X-362402D01*
X-342408D02*
X-322415Y472441D01*
X-302421Y522425D02*
X-292424Y532422D01*
X-272431D01*
X-262434Y522425D01*
Y512428D01*
X-272431Y502431D01*
X-262434Y492435D01*
Y482438D01*
X-272431Y472441D01*
X-292424D01*
X-302421Y482438D01*
Y492435D01*
X-292424Y502431D01*
X-302421Y512428D01*
Y522425D01*
X-292424Y502431D02*
X-272431D01*
X370204Y388567D02*
X360207Y398563D01*
X340213D01*
X330216Y388567D01*
Y378570D01*
X340213Y368573D01*
X360207D01*
X370204Y358576D01*
Y348579D01*
X360207Y338583D01*
X340213D01*
X330216Y348579D01*
X390197Y398563D02*
Y338583D01*
X420187D01*
X430184Y348579D01*
Y358576D01*
X420187Y368573D01*
X390197D01*
X420187D01*
X430184Y378570D01*
Y388567D01*
X420187Y398563D01*
X390197D01*
X450178Y338583D02*
X470171D01*
X460175D01*
Y398563D01*
X450178Y388567D01*
X-420643Y396440D02*
X-430640Y406437D01*
X-450633D01*
X-460630Y396440D01*
Y386444D01*
X-450633Y376447D01*
X-430640D01*
X-420643Y366450D01*
Y356454D01*
X-430640Y346457D01*
X-450633D01*
X-460630Y356454D01*
X-400649Y406437D02*
Y346457D01*
X-370659D01*
X-360662Y356454D01*
Y366450D01*
X-370659Y376447D01*
X-400649D01*
X-370659D01*
X-360662Y386444D01*
Y396440D01*
X-370659Y406437D01*
X-400649D01*
X-300682Y346457D02*
X-340669D01*
X-300682Y386444D01*
Y396440D01*
X-310678Y406437D01*
X-330672D01*
X-340669Y396440D01*
X-1307087Y1322835D02*
Y1382815D01*
X-1277096D01*
X-1267100Y1372818D01*
Y1352825D01*
X-1277096Y1342828D01*
X-1307087D01*
X-1287093D02*
X-1267100Y1322835D01*
X-1207119Y1382815D02*
X-1227112Y1372818D01*
X-1247106Y1352825D01*
Y1332831D01*
X-1237109Y1322835D01*
X-1217116D01*
X-1207119Y1332831D01*
Y1342828D01*
X-1217116Y1352825D01*
X-1247106D01*
X-1220472Y1516674D02*
Y1456693D01*
X-1190482D01*
X-1180485Y1466690D01*
Y1506677D01*
X-1190482Y1516674D01*
X-1220472D01*
X-1130502Y1456693D02*
Y1516674D01*
X-1160492Y1486683D01*
X-1120505D01*
X-803687Y798215D02*
Y758228D01*
X-783694Y778221D02*
X-823681D01*
X804612Y798215D02*
Y758228D01*
X824606Y778221D02*
X784619D01*
D47*
X76772Y419291D02*
G03*
X76772Y419291I-11811J0D01*
G01*
Y798425D02*
G03*
X76772Y798425I-11811J0D01*
G01*
D48*
X154921Y379134D02*
G03*
X154921Y379134I-4921J0D01*
G01*
X-588583Y884252D02*
G03*
X-588583Y884252I-4921J0D01*
G01*
X154921Y795669D02*
G03*
X154921Y795669I-4921J0D01*
G01*
X295276Y884252D02*
G03*
X295276Y884252I-4921J0D01*
G01*
D49*
X25000Y379921D02*
G03*
X-25000Y379921I-25000J0D01*
G01*
X-523696Y840959D02*
G03*
X-518071Y831692I81766J43293D01*
G01*
X-365788D02*
G03*
X-358091Y845122I-76141J52560D01*
G01*
X-358099Y923396D02*
G03*
X-523688Y927559I-83831J-39144D01*
G01*
X25000Y759055D02*
G03*
X-25000Y759055I-25000J0D01*
G01*
X360163Y840959D02*
G03*
X365788Y831692I81766J43293D01*
G01*
X518071D02*
G03*
X525768Y845122I-76141J52560D01*
G01*
X525760Y923396D02*
G03*
X360171Y927559I-83831J-39144D01*
G01*
X849723Y1774575D02*
G03*
X1014844Y1774575I82560J-161189D01*
G01*
X-1014844Y1774575D02*
G03*
X-849723Y1774575I82560J-161189D01*
G01*
X-104331Y580709D02*
X104331D01*
X-104331Y379921D02*
X-25000D01*
X25000D02*
X104331D01*
X-104331D02*
Y580709D01*
X104331Y379921D02*
Y580709D01*
X-426811Y1433914D02*
X-346811D01*
Y1193914D02*
Y1433914D01*
X-426811Y1193914D02*
X-346811D01*
X-426811D02*
Y1433914D01*
X-386811D02*
Y1473914D01*
Y1153914D02*
Y1193914D01*
X-518071Y831693D02*
X-365788D01*
X-584292Y1433914D02*
X-504292D01*
Y1193914D02*
Y1433914D01*
X-584292Y1193914D02*
X-504292D01*
X-584292D02*
Y1433914D01*
X-544292D02*
Y1473914D01*
Y1153914D02*
Y1193914D01*
X-104331Y1534645D02*
X104331D01*
X-104331Y759055D02*
X-25000D01*
X25000D02*
X104331D01*
X-104331D02*
Y1534645D01*
X104331Y759055D02*
Y1534645D01*
X-752165Y692913D02*
X-543504D01*
X-752165Y582677D02*
X-543504D01*
Y692913D01*
X504292Y1433914D02*
X584292D01*
Y1193914D02*
Y1433914D01*
X504292Y1193914D02*
X584292D01*
X504292D02*
Y1433914D01*
X544292D02*
Y1473914D01*
Y1153914D02*
Y1193914D01*
X346811Y1433914D02*
X426811D01*
Y1193914D02*
Y1433914D01*
X346811Y1193914D02*
X426811D01*
X346811D02*
Y1433914D01*
X386811D02*
Y1473914D01*
Y1153914D02*
Y1193914D01*
X365788Y831693D02*
X518071D01*
X543504Y582677D02*
Y692913D01*
X752165D01*
X543504Y582677D02*
X752165D01*
X932284Y1455906D02*
Y1495276D01*
X912599Y1475591D02*
X951969D01*
X932284D02*
X951969D01*
X842009Y1770384D02*
Y1770385D01*
X849723Y1774575D02*
X1014844D01*
X772284Y1346850D02*
X812284D01*
X1052284D02*
X1092284D01*
X812284Y1386850D02*
X1052284D01*
X812284Y1306850D02*
Y1386850D01*
Y1306850D02*
X1052284D01*
Y1386850D01*
X-533740Y484252D02*
X-493740D01*
X-813740D02*
X-773740D01*
Y524252D02*
X-533740D01*
Y444252D02*
Y524252D01*
X-773740Y444252D02*
X-533740D01*
X-773740D02*
Y524252D01*
X493740Y484252D02*
X533740D01*
X773740D02*
X813740D01*
X533740Y524252D02*
X773740D01*
X533740Y444252D02*
Y524252D01*
Y444252D02*
X773740D01*
Y524252D01*
X-1054134Y413386D02*
Y1220472D01*
X-1628149D02*
X-1054134D01*
X-1932087Y816535D02*
X-1762008D01*
X-1301378Y816929D02*
X-1054134D01*
X-1628149Y413386D02*
X-1054134D01*
X1054134Y816929D02*
X1301378D01*
X1762008Y816535D02*
X1932087D01*
X1054134Y413386D02*
X1628150D01*
X1054134D02*
Y1220472D01*
X1054528D02*
X1628150D01*
X-812284Y1346850D02*
X-772284D01*
X-1092284D02*
X-1052284D01*
Y1386850D02*
X-812284D01*
Y1306850D02*
Y1386850D01*
X-1052284Y1306850D02*
X-812284D01*
X-1052284D02*
Y1386850D01*
X-932284Y1455905D02*
Y1495275D01*
X-951968Y1475590D02*
X-912598D01*
X-932284D02*
X-912598D01*
X-1022558Y1770384D02*
Y1770384D01*
X-1014844Y1774575D02*
X-849723D01*
X-1145669Y207087D02*
X1145669D01*
X-1145669Y-1002362D02*
Y207087D01*
Y-1002362D02*
X1048819D01*
X1145669D01*
Y207087D01*
X1023622Y-830709D02*
Y-791339D01*
Y-830709D02*
Y-751968D01*
Y-791339D02*
Y-751968D01*
Y-791339D02*
X1062992D01*
X984252D02*
X1023622D01*
Y-43307D02*
Y35433D01*
D50*
X-740356Y637802D02*
D03*
X740350Y637780D02*
D03*
%TF.MD5,32a152483cf908d6714856e45988f007*%
M02*
