G04 Layer_Color=16711935*
%FSLAX26Y26*%
%MOIN*%
%TF.FileFunction,Soldermask,Bot*%
%TF.Part,Single*%
G01*
G75*
%TA.AperFunction,ComponentPad*%
%ADD34C,0.067055*%
%ADD35R,0.067055X0.067055*%
%ADD36C,0.063118*%
%ADD37R,0.063118X0.063118*%
%ADD38R,0.086740X0.086740*%
%ADD39C,0.086740*%
%ADD40R,0.086740X0.086740*%
%ADD41R,0.076898X0.055244*%
%ADD42O,0.076898X0.055244*%
%ADD43C,0.070992*%
%ADD44R,0.070992X0.070992*%
%ADD45C,0.176228*%
%TA.AperFunction,ViaPad*%
%ADD46C,0.031622*%
%TA.AperFunction,NonConductor*%
%ADD51C,0.102362*%
D34*
X-150000Y530315D02*
D03*
Y430315D02*
D03*
X150000Y530315D02*
D03*
X-150000Y1446850D02*
D03*
Y1346850D02*
D03*
Y1246850D02*
D03*
Y1146850D02*
D03*
Y1046850D02*
D03*
Y946850D02*
D03*
Y846850D02*
D03*
X150000Y1446850D02*
D03*
Y1346850D02*
D03*
Y1246850D02*
D03*
Y1146850D02*
D03*
Y1046850D02*
D03*
Y946850D02*
D03*
D35*
Y430315D02*
D03*
Y846850D02*
D03*
D36*
X-386811Y1513914D02*
D03*
Y1113914D02*
D03*
X-339567Y884252D02*
D03*
X-441929D02*
D03*
X-544292Y1513914D02*
D03*
Y1113914D02*
D03*
X544292Y1513914D02*
D03*
Y1113914D02*
D03*
X386811Y1513914D02*
D03*
Y1113914D02*
D03*
X544292Y884252D02*
D03*
X441929D02*
D03*
X732284Y1346850D02*
D03*
X1132284D02*
D03*
X-453740Y484252D02*
D03*
X-853740D02*
D03*
X453740D02*
D03*
X853740D02*
D03*
X-732284Y1346850D02*
D03*
X-1132284D02*
D03*
D37*
X-544292Y884252D02*
D03*
X339567Y884252D02*
D03*
D38*
X-804150Y1034436D02*
D03*
X804149D02*
D03*
X1029921Y-665158D02*
D03*
D39*
X-804150Y876955D02*
D03*
X-441929Y637795D02*
D03*
X804149Y876955D02*
D03*
X441929Y637795D02*
D03*
X1029921Y-130118D02*
D03*
X0Y-397638D02*
D03*
D40*
X-853740Y637795D02*
D03*
X853740Y637795D02*
D03*
D41*
X-544291Y1836614D02*
D03*
X386811D02*
D03*
D42*
X-386811D02*
D03*
Y1765748D02*
D03*
X-544291D02*
D03*
X544291Y1836614D02*
D03*
Y1765748D02*
D03*
X386811D02*
D03*
D43*
X932284Y1663386D02*
D03*
X-932284Y1663386D02*
D03*
D44*
X932284Y1563386D02*
D03*
X-932284Y1563386D02*
D03*
D45*
X0Y-1444882D02*
D03*
D46*
Y-1358268D02*
D03*
X-61245Y-1383636D02*
D03*
X-86614Y-1444882D02*
D03*
X-61245Y-1506127D02*
D03*
X0Y-1531496D02*
D03*
X61245Y-1506127D02*
D03*
X86614Y-1444882D02*
D03*
X61245Y-1383636D02*
D03*
D51*
X90551Y-1444882D02*
G03*
X90551Y-1444882I-90551J0D01*
G01*
%TF.MD5,30a2c7034d0c4082f4e53931bae8ae8b*%
M02*
