G04 Layer_Color=8388736*
%FSLAX26Y26*%
%MOIN*%
%TF.FileFunction,Soldermask,Top*%
%TF.Part,Single*%
G01*
G75*
%TA.AperFunction,NonConductor*%
%ADD31C,0.062992*%
%TA.AperFunction,SMDPad,CuDef*%
%ADD32R,0.086740X0.086740*%
%ADD33R,0.072961X0.086740*%
%TA.AperFunction,ComponentPad*%
%ADD34C,0.067055*%
%ADD35R,0.067055X0.067055*%
%ADD36C,0.063118*%
%ADD37R,0.063118X0.063118*%
%ADD38R,0.086740X0.086740*%
%ADD39C,0.086740*%
%ADD40R,0.086740X0.086740*%
%ADD41R,0.076898X0.055244*%
%ADD42O,0.076898X0.055244*%
%ADD43C,0.070992*%
%ADD44R,0.070992X0.070992*%
%ADD45C,0.176228*%
%TA.AperFunction,ViaPad*%
%ADD46C,0.031622*%
G36*
X677196Y421297D02*
X677711Y421195D01*
X678207Y421026D01*
X678678Y420794D01*
X679114Y420503D01*
X679508Y420157D01*
X679853Y419763D01*
X680145Y419327D01*
X680377Y418857D01*
X680545Y418360D01*
X680648Y417846D01*
X680682Y417323D01*
Y377953D01*
Y338583D01*
X680648Y338060D01*
X680545Y337545D01*
X680377Y337049D01*
X680145Y336578D01*
X679853Y336142D01*
X679508Y335748D01*
X679114Y335402D01*
X678678Y335111D01*
X678207Y334879D01*
X677711Y334711D01*
X677196Y334608D01*
X676673Y334574D01*
X647146D01*
X646903Y334590D01*
X646666Y334603D01*
X646645Y334607D01*
X646622Y334608D01*
X646388Y334655D01*
X646151Y334700D01*
X646130Y334706D01*
X646108Y334711D01*
X645881Y334788D01*
X645653Y334863D01*
X645633Y334872D01*
X645612Y334879D01*
X645397Y334985D01*
X645180Y335089D01*
X645161Y335102D01*
X645141Y335111D01*
X644946Y335242D01*
X644740Y335376D01*
X644723Y335390D01*
X644705Y335402D01*
X644525Y335560D01*
X644343Y335717D01*
X644328Y335733D01*
X644311Y335748D01*
X644152Y335930D01*
X643992Y336108D01*
X643980Y336126D01*
X643966Y336142D01*
X643834Y336339D01*
X643696Y336540D01*
X643686Y336560D01*
X643674Y336578D01*
X643567Y336796D01*
X643459Y337008D01*
X643452Y337028D01*
X643442Y337049D01*
X643364Y337279D01*
X643285Y337503D01*
X643281Y337525D01*
X643274Y337545D01*
X643227Y337779D01*
X643177Y338016D01*
X643176Y338038D01*
X643171Y338060D01*
X643155Y338302D01*
X643137Y338539D01*
X643139Y338560D01*
X643137Y338583D01*
X643153Y338825D01*
X643166Y339062D01*
X643170Y339084D01*
X643171Y339106D01*
X643218Y339340D01*
X643263Y339578D01*
X643269Y339599D01*
X643274Y339620D01*
X643351Y339848D01*
X643426Y340076D01*
X643435Y340096D01*
X643442Y340117D01*
X643548Y340331D01*
X643652Y340549D01*
X643665Y340568D01*
X643674Y340587D01*
X643805Y340782D01*
X643939Y340988D01*
X671662Y377953D01*
X643939Y414918D01*
X643806Y415121D01*
X643674Y415319D01*
X643665Y415338D01*
X643652Y415357D01*
X643548Y415575D01*
X643442Y415789D01*
X643435Y415810D01*
X643426Y415830D01*
X643351Y416058D01*
X643274Y416285D01*
X643269Y416307D01*
X643263Y416328D01*
X643218Y416565D01*
X643171Y416800D01*
X643170Y416822D01*
X643166Y416844D01*
X643153Y417084D01*
X643137Y417323D01*
X643139Y417345D01*
X643137Y417367D01*
X643156Y417608D01*
X643171Y417846D01*
X643176Y417868D01*
X643177Y417890D01*
X643227Y418126D01*
X643274Y418360D01*
X643281Y418381D01*
X643285Y418403D01*
X643365Y418630D01*
X643442Y418857D01*
X643452Y418877D01*
X643459Y418897D01*
X643569Y419114D01*
X643674Y419327D01*
X643686Y419345D01*
X643696Y419365D01*
X643834Y419566D01*
X643966Y419763D01*
X643980Y419780D01*
X643992Y419798D01*
X644152Y419976D01*
X644311Y420157D01*
X644328Y420172D01*
X644343Y420188D01*
X644525Y420345D01*
X644705Y420503D01*
X644723Y420515D01*
X644740Y420530D01*
X644946Y420664D01*
X645141Y420794D01*
X645161Y420804D01*
X645180Y420816D01*
X645397Y420921D01*
X645612Y421026D01*
X645633Y421034D01*
X645653Y421043D01*
X645881Y421118D01*
X646108Y421195D01*
X646130Y421199D01*
X646151Y421206D01*
X646388Y421251D01*
X646622Y421297D01*
X646645Y421299D01*
X646666Y421303D01*
X646907Y421316D01*
X647146Y421332D01*
X676673D01*
X677196Y421297D01*
D02*
G37*
G36*
X-646907Y421316D02*
X-646666Y421303D01*
X-646645Y421299D01*
X-646622Y421297D01*
X-646388Y421251D01*
X-646151Y421206D01*
X-646130Y421199D01*
X-646108Y421195D01*
X-645881Y421118D01*
X-645653Y421043D01*
X-645633Y421034D01*
X-645612Y421026D01*
X-645397Y420921D01*
X-645180Y420816D01*
X-645161Y420804D01*
X-645141Y420794D01*
X-644946Y420664D01*
X-644740Y420530D01*
X-644723Y420515D01*
X-644705Y420503D01*
X-644525Y420345D01*
X-644343Y420188D01*
X-644328Y420172D01*
X-644311Y420157D01*
X-644152Y419976D01*
X-643992Y419798D01*
X-643980Y419780D01*
X-643966Y419763D01*
X-643834Y419566D01*
X-643696Y419365D01*
X-643686Y419345D01*
X-643674Y419327D01*
X-643569Y419114D01*
X-643459Y418897D01*
X-643452Y418877D01*
X-643442Y418857D01*
X-643365Y418630D01*
X-643285Y418403D01*
X-643281Y418381D01*
X-643274Y418360D01*
X-643227Y418126D01*
X-643177Y417890D01*
X-643176Y417868D01*
X-643171Y417846D01*
X-643156Y417608D01*
X-643137Y417367D01*
X-643139Y417345D01*
X-643137Y417323D01*
X-643153Y417084D01*
X-643166Y416844D01*
X-643170Y416822D01*
X-643171Y416800D01*
X-643218Y416565D01*
X-643263Y416328D01*
X-643269Y416307D01*
X-643274Y416285D01*
X-643351Y416058D01*
X-643426Y415830D01*
X-643435Y415810D01*
X-643442Y415789D01*
X-643548Y415575D01*
X-643652Y415357D01*
X-643665Y415338D01*
X-643674Y415319D01*
X-643806Y415121D01*
X-643939Y414918D01*
X-671662Y377953D01*
X-643939Y340988D01*
X-643805Y340782D01*
X-643674Y340587D01*
X-643665Y340568D01*
X-643652Y340549D01*
X-643548Y340331D01*
X-643442Y340117D01*
X-643435Y340096D01*
X-643426Y340076D01*
X-643351Y339848D01*
X-643274Y339620D01*
X-643269Y339599D01*
X-643263Y339578D01*
X-643218Y339340D01*
X-643171Y339106D01*
X-643170Y339084D01*
X-643166Y339062D01*
X-643153Y338825D01*
X-643137Y338583D01*
X-643139Y338560D01*
X-643137Y338539D01*
X-643155Y338302D01*
X-643171Y338060D01*
X-643176Y338038D01*
X-643177Y338016D01*
X-643227Y337779D01*
X-643274Y337545D01*
X-643281Y337525D01*
X-643285Y337503D01*
X-643364Y337279D01*
X-643442Y337049D01*
X-643452Y337028D01*
X-643459Y337008D01*
X-643567Y336796D01*
X-643674Y336578D01*
X-643686Y336560D01*
X-643696Y336540D01*
X-643834Y336339D01*
X-643966Y336142D01*
X-643980Y336126D01*
X-643992Y336108D01*
X-644152Y335930D01*
X-644311Y335748D01*
X-644328Y335733D01*
X-644343Y335717D01*
X-644525Y335560D01*
X-644705Y335402D01*
X-644723Y335390D01*
X-644740Y335376D01*
X-644946Y335242D01*
X-645141Y335111D01*
X-645161Y335102D01*
X-645180Y335089D01*
X-645397Y334985D01*
X-645612Y334879D01*
X-645633Y334872D01*
X-645653Y334863D01*
X-645881Y334788D01*
X-646108Y334711D01*
X-646130Y334706D01*
X-646151Y334700D01*
X-646388Y334655D01*
X-646622Y334608D01*
X-646645Y334607D01*
X-646666Y334603D01*
X-646903Y334590D01*
X-647146Y334574D01*
X-676673D01*
X-677196Y334608D01*
X-677711Y334711D01*
X-678207Y334879D01*
X-678678Y335111D01*
X-679114Y335402D01*
X-679508Y335748D01*
X-679853Y336142D01*
X-680145Y336578D01*
X-680377Y337049D01*
X-680545Y337545D01*
X-680648Y338060D01*
X-680682Y338583D01*
Y377953D01*
Y417323D01*
X-680648Y417846D01*
X-680545Y418360D01*
X-680377Y418857D01*
X-680145Y419327D01*
X-679853Y419763D01*
X-679508Y420157D01*
X-679114Y420503D01*
X-678678Y420794D01*
X-678207Y421026D01*
X-677711Y421195D01*
X-677196Y421297D01*
X-676673Y421332D01*
X-647146D01*
X-646907Y421316D01*
D02*
G37*
G36*
X-623276Y421315D02*
X-623044Y421303D01*
X-623023Y421299D01*
X-623000Y421297D01*
X-622761Y421250D01*
X-622529Y421206D01*
X-622508Y421199D01*
X-622486Y421195D01*
X-622259Y421118D01*
X-622030Y421043D01*
X-622011Y421034D01*
X-621990Y421026D01*
X-621771Y420919D01*
X-621558Y420816D01*
X-621539Y420804D01*
X-621519Y420794D01*
X-621316Y420658D01*
X-621119Y420530D01*
X-621102Y420516D01*
X-621083Y420503D01*
X-620899Y420341D01*
X-620721Y420188D01*
X-620706Y420172D01*
X-620689Y420157D01*
X-620530Y419976D01*
X-620370Y419798D01*
X-620358Y419780D01*
X-620343Y419763D01*
X-620212Y419566D01*
X-620074Y419365D01*
X-620064Y419345D01*
X-620052Y419327D01*
X-619945Y419110D01*
X-619837Y418897D01*
X-619830Y418877D01*
X-619820Y418857D01*
X-619740Y418620D01*
X-619663Y418403D01*
X-619659Y418382D01*
X-619652Y418360D01*
X-619604Y418122D01*
X-619555Y417890D01*
X-619554Y417868D01*
X-619549Y417846D01*
X-619533Y417604D01*
X-619515Y417367D01*
X-619516Y417345D01*
X-619515Y417323D01*
Y338583D01*
X-619516Y338560D01*
X-619515Y338539D01*
X-619533Y338302D01*
X-619549Y338060D01*
X-619554Y338038D01*
X-619555Y338016D01*
X-619605Y337779D01*
X-619652Y337545D01*
X-619659Y337525D01*
X-619663Y337503D01*
X-619742Y337279D01*
X-619820Y337049D01*
X-619830Y337028D01*
X-619837Y337008D01*
X-619945Y336796D01*
X-620052Y336578D01*
X-620064Y336560D01*
X-620074Y336540D01*
X-620212Y336339D01*
X-620343Y336142D01*
X-620358Y336126D01*
X-620370Y336108D01*
X-620530Y335930D01*
X-620689Y335748D01*
X-620706Y335733D01*
X-620721Y335717D01*
X-620903Y335560D01*
X-621083Y335402D01*
X-621101Y335390D01*
X-621118Y335376D01*
X-621324Y335242D01*
X-621519Y335111D01*
X-621539Y335102D01*
X-621558Y335089D01*
X-621775Y334985D01*
X-621990Y334879D01*
X-622011Y334872D01*
X-622030Y334863D01*
X-622259Y334788D01*
X-622486Y334711D01*
X-622508Y334706D01*
X-622529Y334700D01*
X-622766Y334655D01*
X-623000Y334608D01*
X-623023Y334607D01*
X-623044Y334603D01*
X-623281Y334590D01*
X-623524Y334574D01*
X-623546Y334576D01*
X-623568Y334574D01*
X-623804Y334592D01*
X-624047Y334608D01*
X-624068Y334613D01*
X-624091Y334614D01*
X-624327Y334664D01*
X-624561Y334711D01*
X-624582Y334718D01*
X-624604Y334722D01*
X-624827Y334801D01*
X-625058Y334879D01*
X-625078Y334889D01*
X-625098Y334896D01*
X-625310Y335004D01*
X-625528Y335111D01*
X-625546Y335123D01*
X-625566Y335133D01*
X-625767Y335271D01*
X-625964Y335402D01*
X-625980Y335417D01*
X-625999Y335430D01*
X-626176Y335589D01*
X-626358Y335748D01*
X-626373Y335765D01*
X-626389Y335780D01*
X-626546Y335962D01*
X-626704Y336142D01*
X-626716Y336160D01*
X-626731Y336178D01*
X-656258Y375548D01*
X-656377Y375731D01*
X-656500Y375910D01*
X-656521Y375950D01*
X-656544Y375987D01*
X-656639Y376184D01*
X-656737Y376378D01*
X-656752Y376419D01*
X-656771Y376460D01*
X-656840Y376668D01*
X-656912Y376873D01*
X-656921Y376916D01*
X-656934Y376958D01*
X-656975Y377172D01*
X-657019Y377386D01*
X-657023Y377430D01*
X-657031Y377473D01*
X-657043Y377691D01*
X-657059Y377909D01*
X-657057Y377953D01*
X-657059Y377997D01*
X-657043Y378214D01*
X-657031Y378432D01*
X-657023Y378476D01*
X-657019Y378520D01*
X-656975Y378731D01*
X-656934Y378948D01*
X-656920Y378991D01*
X-656912Y379033D01*
X-656841Y379234D01*
X-656771Y379446D01*
X-656752Y379486D01*
X-656737Y379527D01*
X-656640Y379720D01*
X-656545Y379919D01*
X-656520Y379956D01*
X-656500Y379995D01*
X-656378Y380175D01*
X-656258Y380358D01*
X-626731Y419728D01*
X-626716Y419745D01*
X-626704Y419763D01*
X-626544Y419945D01*
X-626389Y420126D01*
X-626373Y420140D01*
X-626358Y420157D01*
X-626176Y420317D01*
X-625999Y420476D01*
X-625980Y420489D01*
X-625964Y420503D01*
X-625767Y420635D01*
X-625566Y420772D01*
X-625546Y420782D01*
X-625528Y420794D01*
X-625310Y420902D01*
X-625098Y421009D01*
X-625078Y421016D01*
X-625058Y421026D01*
X-624823Y421106D01*
X-624604Y421183D01*
X-624582Y421188D01*
X-624561Y421195D01*
X-624323Y421242D01*
X-624091Y421291D01*
X-624068Y421293D01*
X-624047Y421297D01*
X-623804Y421313D01*
X-623568Y421331D01*
X-623546Y421330D01*
X-623524Y421332D01*
X-623276Y421315D01*
D02*
G37*
G36*
X623546Y421330D02*
X623568Y421331D01*
X623804Y421313D01*
X624047Y421297D01*
X624068Y421293D01*
X624091Y421291D01*
X624323Y421242D01*
X624561Y421195D01*
X624582Y421188D01*
X624604Y421183D01*
X624823Y421106D01*
X625058Y421026D01*
X625078Y421016D01*
X625098Y421009D01*
X625310Y420902D01*
X625528Y420794D01*
X625546Y420782D01*
X625566Y420772D01*
X625767Y420635D01*
X625964Y420503D01*
X625980Y420489D01*
X625999Y420476D01*
X626176Y420317D01*
X626358Y420157D01*
X626373Y420140D01*
X626389Y420126D01*
X626544Y419945D01*
X626704Y419763D01*
X626716Y419745D01*
X626731Y419728D01*
X656258Y380358D01*
X656378Y380175D01*
X656500Y379995D01*
X656520Y379956D01*
X656545Y379919D01*
X656640Y379720D01*
X656737Y379527D01*
X656752Y379486D01*
X656771Y379446D01*
X656841Y379234D01*
X656912Y379033D01*
X656920Y378991D01*
X656934Y378948D01*
X656975Y378731D01*
X657019Y378520D01*
X657023Y378476D01*
X657031Y378432D01*
X657043Y378214D01*
X657059Y377997D01*
X657057Y377953D01*
X657059Y377909D01*
X657043Y377691D01*
X657031Y377473D01*
X657023Y377430D01*
X657019Y377386D01*
X656975Y377172D01*
X656934Y376958D01*
X656921Y376916D01*
X656912Y376873D01*
X656840Y376668D01*
X656771Y376460D01*
X656752Y376419D01*
X656737Y376378D01*
X656639Y376184D01*
X656544Y375987D01*
X656521Y375950D01*
X656500Y375910D01*
X656377Y375731D01*
X656258Y375548D01*
X626731Y336178D01*
X626716Y336160D01*
X626704Y336142D01*
X626546Y335962D01*
X626389Y335780D01*
X626373Y335765D01*
X626358Y335748D01*
X626176Y335589D01*
X625999Y335430D01*
X625980Y335417D01*
X625964Y335402D01*
X625767Y335271D01*
X625566Y335133D01*
X625546Y335123D01*
X625528Y335111D01*
X625310Y335004D01*
X625098Y334896D01*
X625078Y334889D01*
X625058Y334879D01*
X624827Y334801D01*
X624604Y334722D01*
X624582Y334718D01*
X624561Y334711D01*
X624327Y334664D01*
X624091Y334614D01*
X624068Y334613D01*
X624047Y334608D01*
X623804Y334592D01*
X623568Y334574D01*
X623546Y334576D01*
X623524Y334574D01*
X623281Y334590D01*
X623044Y334603D01*
X623023Y334607D01*
X623000Y334608D01*
X622766Y334655D01*
X622529Y334700D01*
X622508Y334706D01*
X622486Y334711D01*
X622259Y334788D01*
X622030Y334863D01*
X622011Y334872D01*
X621990Y334879D01*
X621775Y334985D01*
X621558Y335089D01*
X621539Y335102D01*
X621519Y335111D01*
X621324Y335242D01*
X621118Y335376D01*
X621101Y335390D01*
X621083Y335402D01*
X620903Y335560D01*
X620721Y335717D01*
X620706Y335733D01*
X620689Y335748D01*
X620530Y335930D01*
X620370Y336108D01*
X620358Y336126D01*
X620343Y336142D01*
X620212Y336339D01*
X620074Y336540D01*
X620064Y336560D01*
X620052Y336578D01*
X619945Y336796D01*
X619837Y337008D01*
X619830Y337028D01*
X619820Y337049D01*
X619742Y337279D01*
X619663Y337503D01*
X619659Y337525D01*
X619652Y337545D01*
X619605Y337779D01*
X619555Y338016D01*
X619554Y338038D01*
X619549Y338060D01*
X619533Y338302D01*
X619515Y338539D01*
X619516Y338560D01*
X619515Y338583D01*
Y417323D01*
X619516Y417345D01*
X619515Y417367D01*
X619533Y417604D01*
X619549Y417846D01*
X619554Y417868D01*
X619555Y417890D01*
X619604Y418122D01*
X619652Y418360D01*
X619659Y418382D01*
X619663Y418403D01*
X619740Y418620D01*
X619820Y418857D01*
X619830Y418877D01*
X619837Y418897D01*
X619945Y419110D01*
X620052Y419327D01*
X620064Y419345D01*
X620074Y419365D01*
X620212Y419566D01*
X620343Y419763D01*
X620358Y419780D01*
X620370Y419798D01*
X620530Y419976D01*
X620689Y420157D01*
X620706Y420172D01*
X620721Y420188D01*
X620899Y420341D01*
X621083Y420503D01*
X621102Y420516D01*
X621119Y420530D01*
X621316Y420658D01*
X621519Y420794D01*
X621539Y420804D01*
X621558Y420816D01*
X621771Y420919D01*
X621990Y421026D01*
X622011Y421034D01*
X622030Y421043D01*
X622259Y421118D01*
X622486Y421195D01*
X622508Y421199D01*
X622529Y421206D01*
X622761Y421250D01*
X623000Y421297D01*
X623023Y421299D01*
X623044Y421303D01*
X623276Y421315D01*
X623524Y421332D01*
X623546Y421330D01*
D02*
G37*
D31*
X94488Y-1444882D02*
G03*
X94488Y-1444882I-94488J0D01*
G01*
D32*
X-716043Y377953D02*
D03*
X716043D02*
D03*
D33*
X-591043D02*
D03*
X591043D02*
D03*
D34*
X-150000Y530315D02*
D03*
Y430315D02*
D03*
X150000Y530315D02*
D03*
X-150000Y1446850D02*
D03*
Y1346850D02*
D03*
Y1246850D02*
D03*
Y1146850D02*
D03*
Y1046850D02*
D03*
Y946850D02*
D03*
Y846850D02*
D03*
X150000Y1446850D02*
D03*
Y1346850D02*
D03*
Y1246850D02*
D03*
Y1146850D02*
D03*
Y1046850D02*
D03*
Y946850D02*
D03*
D35*
Y430315D02*
D03*
Y846850D02*
D03*
D36*
X-386811Y1513914D02*
D03*
Y1113914D02*
D03*
X-339567Y884252D02*
D03*
X-441929D02*
D03*
X-544292Y1513914D02*
D03*
Y1113914D02*
D03*
X544292Y1513914D02*
D03*
Y1113914D02*
D03*
X386811Y1513914D02*
D03*
Y1113914D02*
D03*
X544292Y884252D02*
D03*
X441929D02*
D03*
X732284Y1346850D02*
D03*
X1132284D02*
D03*
X-453740Y484252D02*
D03*
X-853740D02*
D03*
X453740D02*
D03*
X853740D02*
D03*
X-732284Y1346850D02*
D03*
X-1132284D02*
D03*
D37*
X-544292Y884252D02*
D03*
X339567Y884252D02*
D03*
D38*
X-804150Y1034436D02*
D03*
X804149D02*
D03*
X1029921Y-665158D02*
D03*
D39*
X-804150Y876955D02*
D03*
X-441929Y637795D02*
D03*
X804149Y876955D02*
D03*
X441929Y637795D02*
D03*
X1029921Y-130118D02*
D03*
X0Y-397638D02*
D03*
D40*
X-853740Y637795D02*
D03*
X853740Y637795D02*
D03*
D41*
X-544291Y1836614D02*
D03*
X386811D02*
D03*
D42*
X-386811D02*
D03*
Y1765748D02*
D03*
X-544291D02*
D03*
X544291Y1836614D02*
D03*
Y1765748D02*
D03*
X386811D02*
D03*
D43*
X932284Y1663386D02*
D03*
X-932284Y1663386D02*
D03*
D44*
X932284Y1563386D02*
D03*
X-932284Y1563386D02*
D03*
D45*
X0Y-1444882D02*
D03*
D46*
Y-1358268D02*
D03*
X-61245Y-1383636D02*
D03*
X-86614Y-1444882D02*
D03*
X-61245Y-1506127D02*
D03*
X0Y-1531496D02*
D03*
X61245Y-1506127D02*
D03*
X86614Y-1444882D02*
D03*
X61245Y-1383636D02*
D03*
%TF.MD5,69de34beb6a199943f49873794debdbd*%
M02*
