M48
;Layer_Color=9474304
;FILE_FORMAT=2:5
INCH,LZ
;TYPE=PLATED
T1F00S00C0.01181
T2F00S00C0.03346
T3F00S00C0.03543
T4F00S00C0.03937
T5F00S00C0.04724
T6F00S00C0.13386
;TYPE=NON_PLATED
T7F00S00C0.14016
%
T01
X-0006125Y-0150613
X0Y-015315
X0006125Y-0150613
X0008661Y-0144488
X0006125Y-0138364
X0Y-0135827
X-0006125Y-0138364
X-0008661Y-0144488
T02
X-0085374Y0048425
X-0113228Y0134685
X-0073228
X-0054429Y0151391
X-0038681Y0151391
Y0111391
X-0054429Y0111391
X-0045374Y0048425
X0045374
X0038681Y0111391
X0054429Y0111391
Y0151391
X0038681Y0151391
X0073228Y0134685
X0113228
X0085374Y0048425
T03
X-0093228Y0156339
X-0015Y0144685
Y0134685
Y0124685
Y0114685
Y0104685
Y0094685
Y0084685
X-0033957Y0088425
X-0044193
X-0054429
X0015Y0084685
Y0094685
Y0104685
Y0114685
Y0124685
Y0134685
Y0144685
X0033957Y0088425
X0044193
X0054429
X0015Y0053031
Y0043031
X-0015
Y0053031
X0093228Y0156339
Y0166339
X-0093228Y0166339
T04
X-0080415Y0087695
Y0103444
X0080415
Y0087695
X0054429Y0176575
Y0183661
X0038681
Y0176575
X-0038681
Y0183661
X-0054429
Y0176575
T05
X0102992Y-0066516
Y-0013012
X-0085374Y0063779
X-0044193
X0044193Y0063779
X0085374
T06
X0Y-0144488
T07
X0Y-0039764
M30
